<?xml version="1.0" encoding="UTF-8"?>
<svg id="Layer_2" data-name="Layer 2" xmlns="http://www.w3.org/2000/svg" viewBox="0 0 468.24 74.36">
  <defs>
    <style>
      .cls-1 {
        fill: #f15a29;
      }
    </style>
  </defs>
  <g id="Layer_1-2" data-name="Layer 1">
    <g>
      <path class="cls-1" d="M28.49.03v3.2H0V.03h28.49ZM0,6.4h28.49v3.2H0v-3.2ZM28.49,73.56h-3.17V16h-3.17v57.56h-3.17V16h-3.14v57.56h-3.17V16h-3.17v57.56h-3.17V16h-3.17v57.56H0V12.8h28.49v60.76Z"/>
      <path class="cls-1" d="M74.58,35.2h-25.35v-3.2h25.35v3.2ZM74.58,41.6h-25.35v-3.2h25.35v3.2ZM74.58,48h-25.35v-3.2h25.35v3.2ZM74.58,54.36h-25.35v-3.17h25.35v3.17Z"/>
      <path class="cls-1" d="M125.89,74.2c-17.05,0-30.9-13.79-30.9-31.04s13.85-31.17,30.9-31.17,30.9,13.95,30.9,31.17v30.4h-3.17v-30.4c0-15.46-12.42-27.97-27.73-27.97s-27.73,12.51-27.73,27.97,12.42,27.87,27.73,27.87c.79,0,1.58-.06,2.38-.13v-3.17c-.79.06-1.58.1-2.38.1-13.56,0-24.56-10.98-24.56-24.67s11-24.77,24.56-24.77,24.56,11.1,24.56,24.77v30.4h-3.17v-30.4c0-11.9-9.57-21.57-21.39-21.57s-21.39,9.66-21.39,21.57,9.57,21.5,21.39,21.5c.79,0,1.58-.06,2.38-.13v-3.2c-.79.1-1.58.16-2.38.16-10.05,0-18.22-8.16-18.22-18.33s8.18-18.37,18.22-18.37,18.22,8.22,18.22,18.37v30.4h-3.17v-30.4c0-8.38-6.75-15.17-15.05-15.17s-15.05,6.78-15.05,15.17,6.75,15.14,15.05,15.14c.82,0,1.62-.06,2.38-.19v-3.23c-.76.16-1.55.26-2.38.26-6.56,0-11.88-5.34-11.88-11.97s5.32-11.97,11.88-11.97,11.88,5.34,11.88,11.97v30.4h-3.17v-30.4c0-4.83-3.9-8.8-8.72-8.8s-8.72,3.97-8.72,8.8,3.9,8.8,8.72,8.8c.82,0,1.62-.13,2.38-.35v-3.39c-.73.35-1.52.54-2.38.54-3.07,0-5.55-2.5-5.55-5.6s2.47-5.6,5.55-5.6,5.55,2.53,5.55,5.6v30.4c-1.9.45-3.71.64-5.55.64ZM128.26,43.17c0-1.31-1.08-2.4-2.38-2.4s-2.38,1.09-2.38,2.4,1.05,2.4,2.38,2.4,2.38-1.06,2.38-2.4Z"/>
      <path class="cls-1" d="M213.33,0v3.2h-6.34c-14.86,0-26.94,12.16-26.94,27.17v43.2h-3.17V30.37c0-16.77,13.5-30.37,30.11-30.37h6.34ZM206.99,6.4h6.34v3.2h-6.34c-11.38,0-20.6,9.31-20.6,20.77v43.2h-3.17V30.37c0-13.25,10.65-23.97,23.77-23.97ZM206.99,12.8h6.34v3.2h-6.34c-7.86,0-14.26,6.43-14.26,14.37v43.2h-3.17V30.37c0-9.7,7.8-17.57,17.43-17.57ZM206.99,19.2h6.34v3.2h-6.34c-4.37,0-7.92,3.55-7.92,7.97v43.2h-3.17V30.37c0-6.18,4.98-11.17,11.09-11.17ZM206.99,25.57h6.34v3.2h-6.34c-.89,0-1.58.74-1.58,1.6v1.6h7.92v3.2h-7.92v3.2h7.92v3.2h-7.92v3.2h7.92v3.2h-7.92v3.2h7.92v3.2h-7.92v19.2h-3.17V30.37c0-2.62,2.12-4.8,4.75-4.8Z"/>
      <path class="cls-1" d="M268.39,12.8v3.2h-6.34c-14.86,0-26.94,12.19-26.94,27.2v30.37h-3.17v-30.37c0-16.77,13.47-30.4,30.11-30.4h6.34ZM268.39,19.2v3.2h-6.34c-11.38,0-20.6,9.31-20.6,20.8v30.37h-3.17v-30.37c0-13.25,10.65-24,23.77-24h6.34ZM268.39,25.6v3.2h-6.34c-7.89,0-14.26,6.46-14.26,14.4v30.37h-3.17v-30.37c0-9.73,7.8-17.6,17.43-17.6h6.34ZM268.39,32v3.2h-6.34c-4.37,0-7.92,3.58-7.92,8v30.37h-3.17v-30.37c0-6.17,4.98-11.2,11.09-11.2h6.34ZM268.39,38.4v3.2h-6.34c-.89,0-1.58.7-1.58,1.6v30.37h-3.17v-30.37c0-2.66,2.12-4.8,4.75-4.8h6.34Z"/>
      <path class="cls-1" d="M316.2.03v3.2h-28.49V.03h28.49ZM287.71,6.4h28.49v3.2h-28.49v-3.2ZM316.2,73.56h-3.17V16h-3.17v57.56h-3.17V16h-3.14v57.56h-3.17V16h-3.17v57.56h-3.17V16h-3.17v57.56h-3.17V12.8h28.49v60.76Z"/>
      <path class="cls-1" d="M392.24,27.58l-2.76,1.6c-4.79-8.35-13.75-13.98-24.02-13.98-15.31,0-27.7,12.54-27.7,28s12.39,27.97,27.7,27.97c10.27,0,19.24-5.63,24.02-13.98l2.76,1.6c-5.36,9.31-15.34,15.58-26.78,15.58-17.05,0-30.87-13.95-30.87-31.17s13.82-31.2,30.87-31.2c11.44,0,21.42,6.27,26.78,15.58ZM386.73,30.78l-2.73,1.6c-3.71-6.43-10.62-10.78-18.54-10.78-11.79,0-21.36,9.66-21.36,21.6s9.57,21.57,21.36,21.57c7.92,0,14.83-4.32,18.54-10.78l2.73,1.6c-4.25,7.42-12.17,12.38-21.27,12.38-13.53,0-24.53-11.07-24.53-24.77s11-24.8,24.53-24.8c9.1,0,17.02,4.99,21.27,12.38ZM381.25,33.98l-2.73,1.6c-2.63-4.54-7.48-7.58-13.06-7.58-8.3,0-15.02,6.78-15.02,15.2s6.72,15.17,15.02,15.17c5.58,0,10.43-3.04,13.06-7.58l2.73,1.6c-3.14,5.5-9.03,9.18-15.78,9.18-10.05,0-18.19-8.22-18.19-18.37s8.14-18.4,18.19-18.4c6.75,0,12.65,3.71,15.78,9.18ZM375.76,37.18l-2.76,1.6c-1.49-2.62-4.31-4.38-7.54-4.38-4.79,0-8.68,3.94-8.68,8.8s3.9,8.8,8.68,8.8c3.23,0,6.05-1.79,7.54-4.42l2.76,1.6c-2.06,3.58-5.89,6.02-10.3,6.02-6.56,0-11.85-5.38-11.85-12s5.29-12,11.85-12c4.41,0,8.24,2.4,10.3,5.98ZM370.28,40.38l-2.76,1.6c-.41-.7-1.17-1.18-2.06-1.18-1.3,0-2.38,1.06-2.38,2.4s1.08,2.4,2.38,2.4c.89,0,1.65-.48,2.06-1.22l2.76,1.6c-.95,1.66-2.76,2.82-4.82,2.82-3.04,0-5.51-2.53-5.51-5.6s2.47-5.6,5.51-5.6c2.06,0,3.87,1.12,4.82,2.78Z"/>
      <path class="cls-1" d="M437.34,74.2c-17.05,0-30.9-13.79-30.9-31.04s13.85-31.17,30.9-31.17,30.9,13.95,30.9,31.17v30.4h-3.17v-30.4c0-15.46-12.42-27.97-27.73-27.97s-27.73,12.51-27.73,27.97,12.42,27.87,27.73,27.87c.79,0,1.58-.06,2.38-.13v-3.17c-.79.06-1.58.1-2.38.1-13.56,0-24.56-10.98-24.56-24.67s11-24.77,24.56-24.77,24.56,11.1,24.56,24.77v30.4h-3.17v-30.4c0-11.9-9.57-21.57-21.39-21.57s-21.39,9.66-21.39,21.57,9.57,21.5,21.39,21.5c.79,0,1.58-.06,2.38-.13v-3.2c-.79.1-1.58.16-2.38.16-10.05,0-18.22-8.16-18.22-18.33s8.18-18.37,18.22-18.37,18.22,8.22,18.22,18.37v30.4h-3.17v-30.4c0-8.38-6.75-15.17-15.05-15.17s-15.05,6.78-15.05,15.17,6.75,15.14,15.05,15.14c.82,0,1.62-.06,2.38-.19v-3.23c-.76.16-1.55.26-2.38.26-6.56,0-11.88-5.34-11.88-11.97s5.32-11.97,11.88-11.97,11.88,5.34,11.88,11.97v30.4h-3.17v-30.4c0-4.83-3.9-8.8-8.72-8.8s-8.71,3.97-8.71,8.8,3.9,8.8,8.71,8.8c.82,0,1.62-.13,2.38-.35v-3.39c-.73.35-1.52.54-2.38.54-3.07,0-5.55-2.5-5.55-5.6s2.47-5.6,5.55-5.6,5.55,2.53,5.55,5.6v30.4c-1.9.45-3.71.64-5.55.64ZM439.72,43.17c0-1.31-1.08-2.4-2.38-2.4s-2.38,1.09-2.38,2.4,1.05,2.4,2.38,2.4,2.38-1.06,2.38-2.4Z"/>
    </g>
  </g>
</svg>