<?xml version="1.0" encoding="UTF-8"?>
<svg id="Layer_2" data-name="Layer 2" xmlns="http://www.w3.org/2000/svg" viewBox="0 0 266.21 49.38">
  <defs>
    <style>
      .cls-1 {
        fill: #fff;
      }
    </style>
  </defs>
  <g id="Layer_1-2" data-name="Layer 1">
    <path class="cls-1" d="M0,3.42c0-.92.31-1.71.93-2.37C1.55.39,2.34.06,3.3.06s1.78.33,2.46.99c.68.66,1.02,1.45,1.02,2.37s-.34,1.68-1.02,2.28c-.68.6-1.5.9-2.46.9s-1.75-.3-2.37-.9c-.62-.6-.93-1.36-.93-2.28ZM1.02,12.54h4.8v30H1.02V12.54Z"/>
    <path class="cls-1" d="M35.34,42.54v-17.1c0-3.12-.45-5.47-1.35-7.05-.9-1.58-2.55-2.37-4.95-2.37-2.12,0-3.87.57-5.25,1.71s-2.35,2.57-2.91,4.29v20.52h-4.8V12.54h3.36l.9,3.66h.24c.96-1.28,2.25-2.33,3.87-3.15,1.62-.82,3.55-1.23,5.79-1.23,1.64,0,3.08.19,4.32.57,1.24.38,2.27,1.05,3.09,2.01.82.96,1.44,2.25,1.86,3.87.42,1.62.63,3.67.63,6.15v18.12h-4.8Z"/>
    <path class="cls-1" d="M44.94,12.54h4.68v-5.94l4.8-1.38v7.32h22.63l1.79,4.2h-24.42v16.62c0,2.08.26,3.55.78,4.41.52.86,1.4,1.29,2.64,1.29,1.04,0,1.92-.11,2.64-.33.72-.22,1.52-.51,2.4-.87l1.08,3.66c-1.08.52-2.26.94-3.54,1.26-1.28.32-2.66.48-4.14.48-2.44,0-4.16-.69-5.16-2.07-1-1.38-1.5-3.69-1.5-6.93v-17.52h-4.68v-4.2Z"/>
    <path class="cls-1" d="M70.11,20.13c-2.36,0-4.25.62-5.67,1.86-1.42,1.24-2.27,3.36-2.55,6.36h14.88c0-3.04-.58-5.17-1.74-6.39-1.16-1.22-2.8-1.83-4.92-1.83Z"/>
    <path class="cls-1" d="M86.39,34.62c0,1.4.24,2.4.72,3s1.16.9,2.04.9c.52,0,1.08-.04,1.68-.12.6-.08,1.28-.26,2.04-.54l.54,3.78c-.64.32-1.53.58-2.67.78-1.14.2-2.13.3-2.97.3-1.8,0-3.28-.51-4.44-1.53-1.16-1.02-1.74-2.75-1.74-5.19V0h4.8v34.62Z"/>
    <path class="cls-1" d="M132.12,14.76c1.52-.92,3.29-1.6,5.31-2.04,2.02-.44,4.13-.66,6.33-.66,2.08,0,3.75.28,5.01.84,1.26.56,2.22,1.29,2.88,2.19.66.9,1.1,1.89,1.32,2.97.22,1.08.33,2.16.33,3.24,0,2.4-.06,4.74-.18,7.02-.12,2.28-.18,4.44-.18,6.48,0,1.48.06,2.88.18,4.2s.34,2.54.66,3.66h-3.54l-1.26-4.2h-.3c-.36.56-.81,1.11-1.35,1.65s-1.19,1.02-1.95,1.44c-.76.42-1.64.77-2.64,1.05-1,.28-2.14.42-3.42.42s-2.47-.2-3.57-.6c-1.1-.4-2.05-.97-2.85-1.71-.8-.74-1.43-1.63-1.89-2.67-.46-1.04-.69-2.22-.69-3.54,0-1.76.36-3.23,1.08-4.41.72-1.18,1.73-2.12,3.03-2.82,1.3-.7,2.86-1.2,4.68-1.5,1.82-.3,3.83-.45,6.03-.45h1.65c.54,0,1.09.04,1.65.12.12-1.2.18-2.28.18-3.24,0-2.2-.44-3.74-1.32-4.62-.88-.88-2.48-1.32-4.8-1.32-.68,0-1.41.05-2.19.15-.78.1-1.58.25-2.4.43-.82.19-1.6.41-2.34.68-.74.27-1.39.56-1.95.89l-1.5-3.66ZM140.64,38.82c1.12,0,2.12-.15,3-.45.88-.3,1.64-.68,2.28-1.14.64-.46,1.17-.97,1.59-1.53.42-.56.73-1.1.93-1.62v-4.98c-.56-.04-1.13-.07-1.71-.09-.58-.02-1.15-.03-1.71-.03-1.24,0-2.45.07-3.63.21-1.18.14-2.22.4-3.12.78-.9.38-1.62.9-2.16,1.56-.54.66-.81,1.49-.81,2.49,0,1.4.5,2.55,1.5,3.45,1,.9,2.28,1.35,3.84,1.35Z"/>
    <path class="cls-1" d="M159.06,12.54h4.68v-1.68c0-1.84.15-3.44.45-4.8.3-1.36.79-2.47,1.47-3.33.68-.86,1.56-1.5,2.64-1.92s2.42-.63,4.02-.63c1.28,0,2.41.08,3.39.24.98.16,2.01.46,3.09.9l-1.08,4.02c-.92-.4-1.79-.66-2.61-.78-.82-.12-1.59-.18-2.31-.18-1.04,0-1.85.16-2.43.48-.58.32-1,.79-1.26,1.41-.26.62-.42,1.38-.48,2.28-.06.9-.09,1.95-.09,3.15v.84h7.98v4.2h-8.11s0,19.89.13,32.04c0,.87-3.47.22-3.47.22-.35.65-1.33.4-1.33-.33v-31.93h-4.68v-4.2Z"/>
    <path class="cls-1" d="M195.66,17.16c-1.2-.4-2.34-.6-3.42-.6-1.72,0-3.08.47-4.08,1.41-1,.94-1.62,2.13-1.86,3.57v21h-4.8V12.54h3.36l.9,3.66h.24c.76-1.36,1.67-2.41,2.73-3.15,1.06-.74,2.41-1.11,4.05-1.11,1.16,0,2.46.2,3.9.6l-1.02,4.62Z"/>
    <path class="cls-1" d="M201.9,3.42c0-.92.31-1.71.93-2.37.62-.66,1.41-.99,2.37-.99s1.78.33,2.46.99c.68.66,1.02,1.45,1.02,2.37s-.34,1.68-1.02,2.28c-.68.6-1.5.9-2.46.9s-1.75-.3-2.37-.9c-.62-.6-.93-1.36-.93-2.28ZM202.92,12.54h4.8v30h-4.8V12.54Z"/>
    <path class="cls-1" d="M238.44,40.56c-1.2.88-2.62,1.55-4.26,2.01-1.64.46-3.36.69-5.16.69-2.32,0-4.28-.37-5.88-1.11-1.6-.74-2.91-1.8-3.93-3.18-1.02-1.38-1.76-3.04-2.22-4.98-.46-1.94-.69-4.09-.69-6.45,0-5.08,1.12-8.97,3.36-11.67,2.24-2.7,5.46-4.05,9.66-4.05,1.92,0,3.55.15,4.89.45s2.55.73,3.63,1.29l-1.38,4.14c-.92-.52-1.94-.93-3.06-1.23-1.12-.3-2.32-.45-3.6-.45-5.68,0-8.52,3.84-8.52,11.52,0,1.52.15,2.97.45,4.35s.8,2.6,1.5,3.66c.7,1.06,1.62,1.91,2.76,2.55,1.14.64,2.55.96,4.23.96,1.44,0,2.73-.22,3.87-.66,1.14-.44,2.07-.94,2.79-1.5l1.56,3.66Z"/>
    <path class="cls-1" d="M244.55,14.76c1.52-.92,3.29-1.6,5.31-2.04,2.02-.44,4.13-.66,6.33-.66,2.08,0,3.75.28,5.01.84,1.26.56,2.22,1.29,2.88,2.19.66.9,1.1,1.89,1.32,2.97.22,1.08.33,2.16.33,3.24,0,2.4-.06,4.74-.18,7.02-.12,2.28-.18,4.44-.18,6.48,0,1.48.06,2.88.18,4.2s.34,2.54.66,3.66h-3.54l-1.26-4.2h-.3c-.36.56-.81,1.11-1.35,1.65s-1.19,1.02-1.95,1.44c-.76.42-1.64.77-2.64,1.05s-2.14.42-3.42.42-2.47-.2-3.57-.6-2.05-.97-2.85-1.71c-.8-.74-1.43-1.63-1.89-2.67-.46-1.04-.69-2.22-.69-3.54,0-1.76.36-3.23,1.08-4.41.72-1.18,1.73-2.12,3.03-2.82,1.3-.7,2.86-1.2,4.68-1.5,1.82-.3,3.83-.45,6.03-.45h1.65c.54,0,1.09.04,1.65.12.12-1.2.18-2.28.18-3.24,0-2.2-.44-3.74-1.32-4.62-.88-.88-2.48-1.32-4.8-1.32-.68,0-1.41.05-2.19.15-.78.1-1.58.25-2.4.43-.82.19-1.6.41-2.34.68-.74.27-1.39.56-1.95.89l-1.5-3.66ZM253.08,38.82c1.12,0,2.12-.15,3-.45.88-.3,1.64-.68,2.28-1.14.64-.46,1.17-.97,1.59-1.53.42-.56.73-1.1.93-1.62v-4.98c-.56-.04-1.13-.07-1.71-.09-.58-.02-1.15-.03-1.71-.03-1.24,0-2.45.07-3.63.21-1.18.14-2.22.4-3.12.78-.9.38-1.62.9-2.16,1.56-.54.66-.81,1.49-.81,2.49,0,1.4.5,2.55,1.5,3.45,1,.9,2.28,1.35,3.84,1.35Z"/>
  </g>
</svg>