<?xml version="1.0" encoding="UTF-8"?>
<svg id="Layer_2" data-name="Layer 2" xmlns="http://www.w3.org/2000/svg" viewBox="0 0 387.4 38.06">
  <defs>
    <style>
      .cls-1 {
        fill: #f15a29;
      }
    </style>
  </defs>
  <g id="Layer_1-2" data-name="Layer 1">
    <g>
      <g>
        <path class="cls-1" d="M246.57,31.88h-1.21l-.76-3.25-.76,3.25h-1.16l1.33-5.73-.15-.66h-.9l-1.49,6.39h-1.22l1.5-6.39h-1.2l-1.5,6.39h-1.2l1.5-6.39h-1.22l-1.49,6.39h-1.21l1.49-6.39h-1.21l-1.49,6.39h-1.2l1.49-6.39h-1.2l-1.49,6.39h-1.22l1.83-7.76h11.11l-.32-1.37h-10.47l.34-1.5h9.78l-.3-1.25h-9.18l.31-1.37h8.55l-.32-1.37h-7.91l3.96-16.91h1.2l7.37,31.54ZM235.58,15.88h1.2l2.42-10.38-.61-2.58-3.02,12.96ZM237.99,15.88h1.21l1.22-5.21-.6-2.58-1.82,7.79ZM240.35,15.88h1.27l-.65-2.81-.62,2.81ZM248.99,31.88h-1.2L240.41.34h1.21l7.37,31.54ZM251.41,31.88h-1.22L242.82.34h1.2l7.38,31.54ZM253.82,31.88h-1.2L245.23.34h1.22l7.37,31.54ZM256.23,31.88h-1.21L247.65.34h1.2l7.37,31.54Z"/>
        <path class="cls-1" d="M263.61,31.88h-1.15V.34h1.15v31.54ZM265.9,31.88h-1.15V.34h1.15v31.54ZM268.2,31.88h-1.15V.34h1.15v31.54ZM280.24,1.71h-9.75v1.37h9.75v1.37h-9.75v1.37h9.75v1.37h-9.75v1.37h9.75v1.37h-9.75v1.37h6.88v1.37h-6.88v1.37h6.88v1.37h-6.88v1.37h6.88v1.37h-6.88v1.36h6.88v1.37h-6.88v10.97h-1.15V.34h10.9v1.37Z"/>
        <path class="cls-1" d="M287.98,31.88h-1.15V.34h1.15v31.54ZM290.27,31.88h-1.15V.34h1.15v31.54ZM292.57,31.88h-1.15V.34h1.15v31.54ZM306.62,10.63c0,3.5-1.46,6.58-3.7,8.45l4.3,12.8h-1.24l-4.06-12.08c-.33.21-.69.38-1.06.54l3.88,11.55h-1.23l-3.77-11.18c-.38.1-.77.16-1.17.19l3.7,10.99h-1.24l-3.69-10.97h-1.24l3.69,10.97h-1.23l-3.71-11.04v3.69l2.47,7.35h-1.24l-1.23-3.81v3.81h-1.15V.34h4.31c4.75,0,8.6,4.61,8.6,10.29ZM294.86,1.71v1.37h3.16c3.48,0,6.3,3.37,6.3,7.54s-2.82,7.54-6.3,7.54h-3.16v1.37h3.16c4.11,0,7.45-3.99,7.45-8.92s-3.34-8.92-7.45-8.92h-3.16ZM294.86,4.46v1.37h3.16c2.22,0,4.01,2.14,4.01,4.8s-1.79,4.8-4.01,4.8h-3.16v1.37h3.16c2.85,0,5.15-2.77,5.15-6.17s-2.31-6.17-5.15-6.17h-3.16ZM294.86,7.2v1.37h3.16c.94,0,1.71.92,1.71,2.06s-.77,2.06-1.71,2.06h-3.16v1.37h3.16c1.58,0,2.86-1.54,2.86-3.43s-1.27-3.43-2.86-3.43h-3.16ZM294.86,9.95v1.37h3.16c.31,0,.56-.32.56-.69s-.25-.69-.56-.69h-3.16Z"/>
        <path class="cls-1" d="M315.49,31.88h-1.15V.34h1.15v31.54ZM317.79,31.88h-1.15V.34h1.15v31.54ZM320.09,31.88h-1.15V.34h1.15v31.54ZM322.37,31.88h-1.15V.34h1.15v31.54ZM324.67,31.88h-1.15V.34h1.15v31.54Z"/>
        <path class="cls-1" d="M356.91,24.17c-2.33,4.81-6.69,8.05-11.69,8.05-7.44,0-13.48-7.21-13.48-16.1s6.04-16.12,13.48-16.12c4.99,0,9.36,3.24,11.69,8.05l-1,.69c-2.13-4.4-6.12-7.37-10.69-7.37-6.81,0-12.33,6.6-12.33,14.75s5.52,14.73,12.33,14.73c4.57,0,8.55-2.96,10.69-7.37l1,.69ZM354.93,9.42l-1,.69c-1.73-3.58-4.98-6-8.7-6-5.54,0-10.03,5.38-10.03,12s4.49,11.99,10.03,11.99c3.72,0,6.97-2.41,8.7-5.99l1,.69c-1.94,3.99-5.56,6.68-9.7,6.68-6.18,0-11.18-5.98-11.18-13.36s5.01-13.38,11.18-13.38c4.14,0,7.76,2.69,9.7,6.68ZM352.93,10.8l-.99.69c-1.34-2.76-3.85-4.62-6.72-4.62-4.27,0-7.74,4.14-7.74,9.26s3.47,9.25,7.74,9.25c2.87,0,5.37-1.85,6.72-4.62l.99.69c-1.54,3.18-4.41,5.31-7.7,5.31-4.9,0-8.89-4.75-8.89-10.62s3.98-10.63,8.89-10.63c3.29,0,6.17,2.14,7.7,5.31ZM350.94,12.17l-.99.69c-.95-1.95-2.71-3.25-4.73-3.25-3.01,0-5.44,2.91-5.44,6.52s2.43,6.5,5.44,6.5c2.02,0,3.78-1.3,4.73-3.25l.99.69c-1.14,2.36-3.27,3.94-5.72,3.94-3.64,0-6.59-3.53-6.59-7.87s2.95-7.89,6.59-7.89c2.45,0,4.58,1.59,5.72,3.94ZM348.96,13.54l-1,.69c-.54-1.12-1.56-1.88-2.73-1.88-1.73,0-3.15,1.69-3.15,3.77s1.41,3.77,3.15,3.77c1.17,0,2.19-.77,2.73-1.89l1,.69c-.75,1.54-2.14,2.58-3.73,2.58-2.38,0-4.29-2.3-4.29-5.14s1.92-5.14,4.29-5.14c1.6,0,2.98,1.03,3.73,2.56ZM346.97,14.91l-1,.69c-.15-.3-.43-.51-.75-.51-.47,0-.86.45-.86,1.03s.39,1.03.86,1.03c.32,0,.6-.21.75-.52l1,.69c-.34.71-1,1.21-1.75,1.21-1.1,0-2-1.08-2-2.4s.9-2.4,2-2.4c.75,0,1.4.48,1.75,1.19Z"/>
        <path class="cls-1" d="M377.75,31.88h-1.2l-.76-3.25-.76,3.25h-1.16l1.33-5.73-.15-.66h-.89l-1.49,6.39h-1.22l1.5-6.39h-1.21l-1.5,6.39h-1.21l1.5-6.39h-1.22l-1.49,6.39h-1.2l1.49-6.39h-1.2l-1.49,6.39h-1.21l1.49-6.39h-1.21l-1.49,6.39h-1.22l1.82-7.76h11.11l-.32-1.37h-10.47l.35-1.5h9.78l-.3-1.25h-9.18l.31-1.37h8.55l-.32-1.37h-7.91l3.96-16.91h1.21l7.37,31.54ZM366.75,15.88h1.21l2.42-10.38-.61-2.58-3.02,12.96ZM369.16,15.88h1.2l1.22-5.21-.6-2.58-1.83,7.79ZM371.52,15.88h1.27l-.65-2.81-.62,2.81ZM380.16,31.88h-1.21l-7.37-31.54h1.2l7.37,31.54ZM382.58,31.88h-1.22l-7.37-31.54h1.21l7.38,31.54ZM384.99,31.88h-1.21l-7.38-31.54h1.22l7.37,31.54ZM387.4,31.88h-1.2l-7.37-31.54h1.21l7.37,31.54Z"/>
      </g>
      <g>
        <path class="cls-1" d="M10.34.67v1.37H0V.67h10.34ZM0,3.4h10.34v1.37H0v-1.37ZM10.34,32.22h-1.15V7.52h-1.15v24.71h-1.15V7.52h-1.14v24.71h-1.15V7.52h-1.15v24.71h-1.15V7.52h-1.15v24.71H0V6.14h10.34v26.08Z"/>
        <path class="cls-1" d="M32.57,32.22v-13.39c0-6.44-4.38-11.66-9.77-11.66s-9.76,5.22-9.76,11.66v13.39h-1.15v-13.39c0-7.2,4.89-13.03,10.91-13.03s10.92,5.84,10.92,13.03v13.39h-1.15ZM30.27,32.22v-13.39c0-4.92-3.35-8.91-7.47-8.91s-7.47,4-7.47,8.91v13.39h-1.14v-13.39c0-5.69,3.85-10.29,8.61-10.29s8.62,4.6,8.62,10.29v13.39h-1.15ZM29.12,32.22v-13.39c0-4.16-2.83-7.54-6.32-7.54s-6.32,3.38-6.32,7.54v13.39h1.15v-13.39c0-3.41,2.32-6.17,5.17-6.17s5.17,2.76,5.17,6.17v13.39h1.15ZM25.67,32.22v-13.39c0-1.9-1.29-3.42-2.87-3.42s-2.87,1.52-2.87,3.42v13.39h-1.15v-13.39c0-2.65,1.8-4.79,4.02-4.79s4.02,2.14,4.02,4.79v13.39h-1.15ZM23.37,32.22v-13.39c0-.37-.25-.69-.58-.69s-.58.32-.58.69v13.39h-1.15v-13.39c0-1.13.77-2.06,1.72-2.06s1.72.93,1.72,2.06v13.39h-1.15Z"/>
        <path class="cls-1" d="M45.78,30.85h2.3v1.37h-2.3c-6.02,0-10.91-5.84-10.91-13.05V.65h1.15v18.53c0,6.45,4.37,11.67,9.76,11.67ZM45.78,28.1h2.3v1.37h-2.3c-4.76,0-8.61-4.61-8.61-10.3V.65h1.15v18.53c0,4.93,3.35,8.93,7.46,8.93ZM45.78,25.36h2.3v1.37h-2.3c-3.48,0-6.31-3.38-6.31-7.55V.65h1.15v18.53c0,3.42,2.31,6.18,5.16,6.18ZM45.78,22.61h2.3v1.37h-2.3c-2.22,0-4.01-2.14-4.01-4.81V.65h1.14v18.53c0,1.89,1.29,3.43,2.87,3.43ZM45.21,7.52v1.37h2.87v1.37h-2.87v1.37h2.87v1.37h-2.87v1.37h2.87v1.37h-2.87v1.37h2.87v1.37h-2.87v.67c0,.38.26.69.57.69h2.3v1.37h-2.3c-.94,0-1.72-.92-1.72-2.06V.65h1.15v5.49h2.87v1.37h-2.87Z"/>
        <path class="cls-1" d="M57.33,19.86h14.31c-.02.47-.06.92-.11,1.37h-13.74c.32.59.79,1.07,1.33,1.37h12.16c-.1.47-.23.92-.37,1.37h-8.92c-.48.22-1.01.34-1.54.34-2.39,0-4.32-2.29-4.32-5.14s1.93-5.15,4.32-5.15c.52,0,1.03.12,1.51.33h2.18c-1-1.1-2.31-1.7-3.69-1.7-3.02,0-5.47,2.91-5.47,6.52s2.45,6.51,5.47,6.51c1.39,0,2.7-.6,3.7-1.72l.8.97c-1.22,1.36-2.81,2.12-4.51,2.12-3.66,0-6.62-3.53-6.62-7.88s2.95-7.9,6.62-7.9c2.14,0,4.02,1.21,5.23,3.08h1.39c-1.36-2.66-3.81-4.45-6.62-4.45-4.3,0-7.77,4.15-7.77,9.27s3.47,9.26,7.77,9.26c2.01,0,3.9-.92,5.32-2.51l.82.98c-1.67,1.88-3.85,2.91-6.14,2.91-4.93,0-8.92-4.77-8.92-10.63s3.99-10.64,8.92-10.64c3.48,0,6.47,2.36,7.94,5.82h1.26c-1.55-4.24-5.08-7.2-9.21-7.2-5.56,0-10.07,5.37-10.07,12.02s4.51,12,10.07,12c2.64,0,5.09-1.19,6.97-3.32l.79.98c-2.01,2.31-4.74,3.72-7.76,3.72-6.2,0-11.22-5.99-11.22-13.38s5.02-13.39,11.22-13.39c5.09,0,9.51,4.06,10.83,9.94h-12.14c-.55.3-1.01.77-1.34,1.37h13.73c.06.45.09.91.11,1.37h-14.3c-.05.23-.06.45-.06.7,0,.23.02.45.05.67Z"/>
        <path class="cls-1" d="M73.65,32.22h-1.15V.65h1.15v31.57ZM75.95,32.22h-1.15V.65h1.15v31.57ZM78.25,32.22h-1.15V.65h1.15v31.57ZM80.55,32.22h-1.15V.65h1.15v31.57ZM82.85,32.22h-1.15V.65h1.15v31.57Z"/>
        <path class="cls-1" d="M85.55,32.22h-1.15V.65h1.15v31.57ZM87.85,32.22h-1.15V.65h1.15v31.57ZM90.15,32.22h-1.15V.65h1.15v31.57ZM92.45,32.22h-1.15V.65h1.15v31.57ZM94.75,32.22h-1.15V.65h1.15v31.57Z"/>
        <path class="cls-1" d="M106.64.67v1.37h-10.34V.67h10.34ZM96.3,3.4h10.34v1.37h-10.34v-1.37ZM106.64,32.22h-1.15V7.52h-1.15v24.71h-1.15V7.52h-1.14v24.71h-1.15V7.52h-1.15v24.71h-1.15V7.52h-1.15v24.71h-1.15V6.14h10.34v26.08Z"/>
        <path class="cls-1" d="M127.72,17.46v8.94c0,6.44-4.37,11.66-9.77,11.66s-9.76-5.22-9.76-11.66v-.7h1.15v.7c0,5.69,3.85,10.29,8.61,10.29s8.62-4.6,8.62-10.29v-8.94c0-5.67-3.86-10.29-8.62-10.29s-8.61,4.61-8.61,10.3c0,3.36,1.36,6.36,3.45,8.23h1.14v.7c0,2.65,1.8,4.81,4.02,4.81s4.02-2.16,4.02-4.81v-8.94c0-2.65-1.79-4.79-4.02-4.79s-4.01,2.14-4.01,4.81c0,2.42,1.49,4.41,3.44,4.75v-1.4c-1.31-.32-2.29-1.7-2.29-3.35,0-1.9,1.28-3.43,2.86-3.43s2.87,1.54,2.87,3.42v8.94c0,1.9-1.29,3.43-2.87,3.43s-2.86-1.54-2.86-3.43v-.7c-2.7-1.35-4.6-4.52-4.6-8.23,0-4.93,3.35-8.93,7.46-8.93s7.47,4,7.47,8.91v8.94c0,4.93-3.35,8.93-7.47,8.93s-7.46-4-7.46-8.93v-.7h.55c-1.76-2.1-2.85-5.01-2.85-8.23,0-6.46,4.37-11.67,9.76-11.67s9.77,5.22,9.77,11.66ZM111.64,26.4c0,4.18,2.83,7.55,6.31,7.55s6.32-3.38,6.32-7.55v-8.94c0-4.16-2.83-7.54-6.32-7.54s-6.31,3.38-6.31,7.55c0,3.93,2.52,7.17,5.74,7.51v-1.37c-2.57-.34-4.59-2.97-4.59-6.14,0-3.42,2.31-6.18,5.16-6.18s5.17,2.76,5.17,6.17v8.94c0,3.41-2.31,6.18-5.17,6.18s-5.16-2.77-5.16-6.18h-.01v-.7h-1.14v.7ZM117.38,26.4v-.7h-1.15v.7c0,1.14.78,2.06,1.73,2.06s1.72-.92,1.72-2.06v-8.94c0-1.13-.77-2.05-1.72-2.05s-1.71.92-1.71,2.06c0,.89.47,1.65,1.14,1.94v-1.95c0-.37.26-.67.58-.67s.58.3.58.67v8.94c0,.38-.25.69-.58.69s-.58-.32-.58-.69Z"/>
        <path class="cls-1" d="M136.97,19.86h14.31c-.02.47-.06.92-.11,1.37h-13.74c.32.59.79,1.07,1.33,1.37h12.16c-.1.47-.23.92-.37,1.37h-8.92c-.48.22-1.01.34-1.54.34-2.39,0-4.32-2.29-4.32-5.14s1.93-5.15,4.32-5.15c.52,0,1.03.12,1.51.33h2.18c-1-1.1-2.31-1.7-3.69-1.7-3.02,0-5.47,2.91-5.47,6.52s2.45,6.51,5.47,6.51c1.39,0,2.7-.6,3.7-1.72l.8.97c-1.22,1.36-2.81,2.12-4.51,2.12-3.66,0-6.62-3.53-6.62-7.88s2.95-7.9,6.62-7.9c2.14,0,4.02,1.21,5.23,3.08h1.39c-1.36-2.66-3.81-4.45-6.62-4.45-4.3,0-7.77,4.15-7.77,9.27s3.47,9.26,7.77,9.26c2.01,0,3.9-.92,5.32-2.51l.82.98c-1.67,1.88-3.85,2.91-6.14,2.91-4.93,0-8.92-4.77-8.92-10.63s3.99-10.64,8.92-10.64c3.48,0,6.47,2.36,7.94,5.82h1.26c-1.55-4.24-5.08-7.2-9.21-7.2-5.56,0-10.07,5.37-10.07,12.02s4.51,12,10.07,12c2.64,0,5.09-1.19,6.97-3.32l.79.98c-2.01,2.31-4.74,3.72-7.76,3.72-6.2,0-11.22-5.99-11.22-13.38s5.02-13.39,11.22-13.39c5.09,0,9.51,4.06,10.83,9.94h-12.14c-.55.3-1.01.77-1.34,1.37h13.73c.06.45.09.91.11,1.37h-14.3c-.05.23-.06.45-.06.7,0,.23.02.45.05.67Z"/>
        <path class="cls-1" d="M172.83,32.22v-13.39c0-6.44-4.38-11.66-9.77-11.66s-9.76,5.22-9.76,11.66v13.39h-1.15v-13.39c0-7.2,4.89-13.03,10.91-13.03s10.92,5.84,10.92,13.03v13.39h-1.15ZM170.53,32.22v-13.39c0-4.92-3.35-8.91-7.47-8.91s-7.47,4-7.47,8.91v13.39h-1.14v-13.39c0-5.69,3.85-10.29,8.61-10.29s8.62,4.6,8.62,10.29v13.39h-1.15ZM169.38,32.22v-13.39c0-4.16-2.83-7.54-6.32-7.54s-6.32,3.38-6.32,7.54v13.39h1.15v-13.39c0-3.41,2.32-6.17,5.17-6.17s5.17,2.76,5.17,6.17v13.39h1.15ZM165.93,32.22v-13.39c0-1.9-1.29-3.42-2.87-3.42s-2.87,1.52-2.87,3.42v13.39h-1.15v-13.39c0-2.65,1.8-4.79,4.02-4.79s4.02,2.14,4.02,4.79v13.39h-1.15ZM163.63,32.22v-13.39c0-.37-.25-.69-.58-.69s-.57.32-.57.69v13.39h-1.15v-13.39c0-1.13.77-2.06,1.72-2.06s1.73.93,1.73,2.06v13.39h-1.15Z"/>
        <path class="cls-1" d="M196.04,12.49l-1,.69c-1.74-3.58-4.99-6-8.71-6-5.55,0-10.05,5.38-10.05,12.02s4.5,12,10.05,12c3.72,0,6.98-2.42,8.71-6l1,.69c-1.94,4-5.56,6.69-9.71,6.69-6.19,0-11.2-5.99-11.2-13.38s5.01-13.39,11.2-13.39c4.15,0,7.77,2.69,9.71,6.69ZM194.04,13.86l-.99.69c-1.34-2.76-3.85-4.63-6.72-4.63-4.28,0-7.75,4.15-7.75,9.27s3.47,9.26,7.75,9.26c2.87,0,5.38-1.85,6.72-4.63l.99.69c-1.54,3.19-4.41,5.31-7.71,5.31-4.91,0-8.9-4.75-8.9-10.63s3.99-10.64,8.9-10.64c3.3,0,6.17,2.14,7.71,5.31ZM192.05,15.24l-.99.69c-.95-1.95-2.71-3.25-4.74-3.25-3.01,0-5.45,2.91-5.45,6.52s2.44,6.51,5.45,6.51c2.02,0,3.78-1.3,4.74-3.25l.99.69c-1.14,2.36-3.28,3.94-5.73,3.94-3.64,0-6.6-3.53-6.6-7.88s2.95-7.9,6.6-7.9c2.45,0,4.59,1.59,5.73,3.94ZM190.06,16.61l-1,.69c-.54-1.13-1.56-1.88-2.74-1.88-1.74,0-3.15,1.69-3.15,3.78s1.41,3.78,3.15,3.78c1.17,0,2.2-.77,2.74-1.9l1,.69c-.75,1.54-2.14,2.58-3.74,2.58-2.38,0-4.3-2.31-4.3-5.15s1.92-5.15,4.3-5.15c1.6,0,2.99,1.03,3.74,2.57ZM188.07,17.98l-1,.69c-.15-.3-.43-.51-.75-.51-.47,0-.86.45-.86,1.03s.39,1.03.86,1.03c.32,0,.6-.21.75-.52l1,.69c-.34.71-1,1.21-1.75,1.21-1.1,0-2-1.08-2-2.4s.9-2.4,2-2.4c.75,0,1.4.48,1.75,1.19Z"/>
        <path class="cls-1" d="M204.14,19.86h14.31c-.02.47-.06.92-.11,1.37h-13.74c.32.59.79,1.07,1.33,1.37h12.16c-.1.47-.23.92-.37,1.37h-8.92c-.48.22-1.01.34-1.54.34-2.39,0-4.32-2.29-4.32-5.14s1.93-5.15,4.32-5.15c.52,0,1.03.12,1.51.33h2.18c-1-1.1-2.31-1.7-3.69-1.7-3.02,0-5.47,2.91-5.47,6.52s2.45,6.51,5.47,6.51c1.39,0,2.7-.6,3.7-1.72l.8.97c-1.22,1.36-2.81,2.12-4.51,2.12-3.66,0-6.62-3.53-6.62-7.88s2.95-7.9,6.62-7.9c2.14,0,4.02,1.21,5.23,3.08h1.39c-1.36-2.66-3.81-4.45-6.62-4.45-4.3,0-7.77,4.15-7.77,9.27s3.47,9.26,7.77,9.26c2.01,0,3.9-.92,5.32-2.51l.82.98c-1.67,1.88-3.85,2.91-6.14,2.91-4.93,0-8.92-4.77-8.92-10.63s3.99-10.64,8.92-10.64c3.48,0,6.47,2.36,7.94,5.82h1.26c-1.55-4.24-5.08-7.2-9.21-7.2-5.56,0-10.07,5.37-10.07,12.02s4.51,12,10.07,12c2.64,0,5.09-1.19,6.97-3.32l.79.98c-2.01,2.31-4.74,3.72-7.76,3.72-6.2,0-11.22-5.99-11.22-13.38s5.02-13.39,11.22-13.39c5.09,0,9.51,4.06,10.83,9.94h-12.14c-.55.3-1.01.77-1.34,1.37h13.73c.06.45.09.91.11,1.37h-14.3c-.05.23-.06.45-.06.7,0,.23.02.45.05.67Z"/>
      </g>
    </g>
  </g>
</svg>