<?xml version="1.0" encoding="UTF-8"?>
<svg version="1.1" xmlns="http://www.w3.org/2000/svg" width="832" height="832">
<path d="M0 0 C0.52255371 0.40057617 1.04510742 0.80115234 1.58349609 1.21386719 C17.71217197 13.73235917 29.62040128 29.31138554 36.875 48.4375 C37.14924805 49.15115723 37.42349609 49.86481445 37.70605469 50.60009766 C42.19549115 63.21234679 43.4547309 76.04389913 43.29638672 89.33544922 C43.2905674 90.78954114 43.28606682 92.24363884 43.28276062 93.69773865 C43.26986942 97.59215056 43.23778435 101.48617093 43.20104742 105.38042212 C43.16490674 109.48224478 43.14427731 113.58415305 43.12112427 117.68606567 C43.07979846 124.56328677 43.0256167 131.44031681 42.96386719 138.31738281 C42.89286963 146.24499949 42.84367646 154.17253163 42.80575168 162.10037029 C42.76846847 169.76673938 42.71458297 177.43291047 42.6536293 185.09912491 C42.62817398 188.34526035 42.60864892 191.59134907 42.59408188 194.83755112 C42.57625876 198.66116498 42.54386595 202.48439422 42.50060463 206.3078022 C42.48711241 207.70327523 42.47850225 209.09880616 42.47536659 210.4943409 C42.44465919 221.94386551 41.54694698 232.23433541 33.24609375 240.8125 C25.6143189 247.98129047 18.744459 249.88714124 8.23901367 249.57617188 C3.77181915 249.15249736 0.37326841 247.61606473 -3.546875 245.515625 C-4.579263 244.98025368 -4.579263 244.98025368 -5.63250732 244.43406677 C-12.99117451 240.57137019 -20.13359594 236.35031087 -27.25 232.0625 C-28.6375201 231.23256241 -30.0253023 230.40306286 -31.41333008 229.57397461 C-41.11907373 223.76813521 -50.77970975 217.88804441 -60.43380737 211.99685669 C-68.84249752 206.86804371 -77.32094684 201.88845167 -85.89404297 197.04003906 C-91.52135262 193.85702628 -97.08337784 190.58545002 -102.60375977 187.22070312 C-105.72886952 185.32612414 -108.87649368 183.50313257 -112.08984375 181.76171875 C-120.46928934 177.22002979 -127.93095108 172.48431223 -135 166 C-135.4842041 165.56349121 -135.9684082 165.12698242 -136.46728516 164.67724609 C-155.72922393 147.14671754 -168.85146362 121.75319657 -170.12255859 95.46533203 C-170.94865227 66.38182784 -164.62560369 39.28479808 -145 17 C-144.32453125 16.18144531 -143.6490625 15.36289062 -142.953125 14.51953125 C-130.30591905 -0.36632246 -113.49158109 -10.16978371 -95 -16 C-94.32791504 -16.21317871 -93.65583008 -16.42635742 -92.96337891 -16.64599609 C-61.95229573 -26.01694646 -25.67178416 -19.81307824 0 0 Z " fill="#063CFF" transform="translate(707,541)"/>
<path d="M0 0 C1.35475902 1.30982962 2.70371013 2.62565883 4.05224609 3.94189453 C4.70708984 4.53486328 5.36193359 5.12783203 6.03662109 5.73876953 C25.25195399 23.54380277 33.77056698 50.87167041 35.18115234 76.26220703 C35.94015154 106.1161755 24.11541023 133.71665236 3.77099609 155.31689453 C-17.57265161 175.92455438 -45.90652407 186.66788541 -75.49853516 186.15673828 C-99.48461881 185.29569938 -122.94388522 177.0078468 -140.94775391 160.94189453 C-141.75212891 160.27931641 -142.55650391 159.61673828 -143.38525391 158.93408203 C-164.0383202 141.44351651 -176.53547995 115.52600009 -178.78369141 88.67236328 C-180.55075933 59.26330427 -172.42595452 31.30124566 -152.94775391 8.94189453 C-152.43212891 8.28318359 -151.91650391 7.62447266 -151.38525391 6.94580078 C-134.46542661 -14.07708463 -107.26260891 -24.89707967 -81.13525391 -27.80810547 C-51.20084226 -29.69152896 -21.91376605 -20.79434315 0 0 Z " fill="#0587FF" transform="translate(483.94775390625,646.05810546875)"/>
<path d="M0 0 C0.8353125 0.69738281 1.670625 1.39476562 2.53125 2.11328125 C23.01045782 19.90617323 37.08069536 43.66974799 40 71 C40.62666942 84.84705485 40.86144316 98.59394129 37 112 C36.6596875 113.22332031 36.319375 114.44664062 35.96875 115.70703125 C28.10685162 141.4972452 10.43338217 164.08373167 -13.23779297 177.24414062 C-40.50483506 191.62202871 -71.11533719 195.02501875 -100.75 185.875 C-129.13065021 175.47290173 -151.43720005 155.50807371 -164.24609375 128.0859375 C-167.13134805 121.57185498 -169.205958 114.8856349 -171 108 C-171.24621094 107.06671875 -171.49242187 106.1334375 -171.74609375 105.171875 C-177.53205417 77.87810307 -171.0951162 48.20869071 -156.27246094 24.87695312 C-152.6426221 19.52273191 -148.38189903 14.74268413 -144 10 C-143.34515625 9.26394531 -142.6903125 8.52789062 -142.015625 7.76953125 C-106.25368454 -30.5140845 -39.76380564 -33.37319402 0 0 Z " fill="#91F9F4" transform="translate(792,332)"/>
<path d="M0 0 C0.84691406 0.70898438 1.69382813 1.41796875 2.56640625 2.1484375 C23.44852049 20.32065905 36.96107057 44.27338675 40 72 C41.65458168 105.82303016 32.82872871 133.1362618 10.703125 158.6484375 C-8.92294108 179.52582994 -35.80872662 189.36597146 -63.890625 191.1875 C-88.52412552 191.77752396 -114.038832 183.91877637 -133 168 C-133.84691406 167.29101562 -134.69382813 166.58203125 -135.56640625 165.8515625 C-155.9890148 148.07921612 -170.07230448 124.2054725 -173 97 C-173.62776906 83.15338397 -173.86129955 69.40556012 -170 56 C-169.6596875 54.77667969 -169.319375 53.55335938 -168.96875 52.29296875 C-160.88462485 25.7737609 -142.70171732 3.58699017 -118.5234375 -10.00390625 C-81.16873259 -29.52448003 -33.01396137 -27.71674553 0 0 Z " fill="#FF4342" transform="translate(173,332)"/>
<path d="M0 0 C0.680625 0.20898926 1.36125 0.41797852 2.0625 0.63330078 C27.82520022 8.77563146 49.59038001 26.80776441 62.2890625 50.66015625 C76.01242019 77.44890244 79.5563278 107.17873177 70.31835938 136.13671875 C60.56922149 164.33670437 40.47547717 186.78780955 13.75 199.8125 C-11.24307527 211.36498846 -41.24182586 212.58265214 -67.19140625 203.609375 C-79.79750829 198.93379907 -90.50789462 192.33457385 -101 184 C-101.70898438 183.45859375 -102.41796875 182.9171875 -103.1484375 182.359375 C-122.64770736 166.6007814 -135.37163933 139.5650632 -138 115 C-139.52747842 82.54108354 -132.34644695 53.69077173 -110.16015625 29.28515625 C-82.17804903 -0.35976885 -39.22600747 -12.35278469 0 0 Z " fill="#CE0606" transform="translate(223,525)"/>
<path d="M0 0 C21.8088408 18.85857321 34.58810658 45.19653766 36.78515625 73.91796875 C36.86443359 75.21927734 36.86443359 75.21927734 36.9453125 76.546875 C37.00912109 77.58521484 37.00912109 77.58521484 37.07421875 78.64453125 C37.90003719 107.2178494 26.81409077 134.94852267 7.32421875 155.63256836 C-12.0921336 175.4708888 -38.13015502 187.56849215 -66.06420898 187.92700195 C-97.24263201 187.88201144 -124.06020001 178.51037635 -146.7421875 156.296875 C-166.5993266 136.19982351 -176.768783 109.63457554 -177.3046875 81.546875 C-176.85576499 56.60361826 -169.35002715 32.64297615 -153.0546875 13.546875 C-152.3121875 12.66644531 -151.5696875 11.78601562 -150.8046875 10.87890625 C-142.30925352 1.1298058 -133.30633837 -6.06346258 -122.0546875 -12.453125 C-121.09691406 -13.00097656 -120.13914062 -13.54882812 -119.15234375 -14.11328125 C-80.89328723 -34.63357082 -32.73673471 -27.37720199 0 0 Z " fill="#FFD900" transform="translate(482.0546875,25.453125)"/>
<path d="M0 0 C1.52470774 1.28709095 3.04598313 2.57826819 4.5625 3.875 C5.1503125 4.3184375 5.738125 4.761875 6.34375 5.21875 C25.1492295 19.76638508 35.95156039 45.39493105 40.15625 68.078125 C43.33533831 97.79037347 37.28483546 126.7174652 18.77734375 150.52734375 C0.64035365 172.96710328 -24.55346375 187.6111039 -53.4375 190.875 C-85.00187884 192.38278748 -113.29192103 185.71449136 -137.43725586 164.59448242 C-157.02063794 146.79369383 -171.09292203 121.03567515 -172.57910156 94.33056641 C-173.82112365 63.95321117 -166.33625286 37.24349337 -146.4375 13.875 C-145.76976562 13.02421875 -145.10203125 12.1734375 -144.4140625 11.296875 C-110.03369 -30.82927312 -40.83698662 -32.32414047 0 0 Z " fill="#00FFCE" transform="translate(709.4375,120.125)"/>
<path d="M0 0 C22.42070266 18.44589971 37.12228521 43.5312176 40.17578125 72.6640625 C41.62074591 102.54777392 35.35242859 130.75355645 15.17578125 153.6640625 C14.5003125 154.48261719 13.82484375 155.30117188 13.12890625 156.14453125 C-3.22068911 175.38812433 -28.59242986 188.59681737 -53.82421875 190.6640625 C-83.86126571 192.33505848 -111.1300298 186.2319165 -134.82421875 166.6640625 C-135.76136719 165.89191406 -136.69851562 165.11976563 -137.6640625 164.32421875 C-157.0800081 147.52248181 -170.71195604 122.44531414 -172.82421875 96.6640625 C-174.55489854 65.55416708 -167.72389179 37.36879563 -146.82421875 13.6640625 C-146.35886719 13.055625 -145.89351562 12.4471875 -145.4140625 11.8203125 C-130.57122023 -7.42545241 -103.91953097 -18.65769345 -80.546875 -22.02246094 C-51.49708858 -25.36714582 -23.17479775 -17.97474585 0 0 Z " fill="#FF9D00" transform="translate(257.82421875,120.3359375)"/>
</svg>
