<?xml version="1.0" encoding="UTF-8"?>
<svg id="Layer_2" data-name="Layer 2" xmlns="http://www.w3.org/2000/svg" xmlns:xlink="http://www.w3.org/1999/xlink" viewBox="0 0 285.99 182.68">
  <defs>
    <style>
      .cls-1 {
        fill: #f9b12c;
      }

      .cls-2 {
        fill: url(#linear-gradient);
        opacity: .92;
      }

      .cls-3 {
        fill: #fff;
      }
    </style>
    <linearGradient id="linear-gradient" x1="0" y1="91.34" x2="285.99" y2="91.34" gradientUnits="userSpaceOnUse">
      <stop offset="0" stop-color="#f9b12c"/>
      <stop offset=".09" stop-color="#f7a32d"/>
      <stop offset=".25" stop-color="#f58030"/>
    </linearGradient>
  </defs>
  <g id="Layer_1-2" data-name="Layer 1">
    <g>
      <rect class="cls-2" width="285.99" height="182.68"/>
      <path class="cls-3" d="M68.47,92.89h2.13v27.4h-2.13v-.17c-1.87.5-3.83.76-5.85.76-13.78,0-24.97-12.54-24.97-28s11.19-28.02,24.97-28.02c7.79,0,14.72,3.98,19.31,10.21l-1.66,1.53c-4.19-5.7-10.53-9.35-17.65-9.35-12.61,0-22.84,11.47-22.84,25.64s10.23,25.61,22.84,25.61c2.02,0,3.98-.29,5.85-.86v-2.46c-1.85.6-3.81.93-5.85.93-11.44,0-20.72-10.4-20.72-23.23s9.27-23.25,20.72-23.25c6.45,0,12.21,3.29,16.02,8.47l-1.64,1.53c-3.4-4.65-8.59-7.61-14.38-7.61-10.27,0-18.59,9.33-18.59,20.87s8.32,20.84,18.59,20.84c2.04,0,4.02-.36,5.85-1.05v-2.53c-1.81.76-3.79,1.19-5.85,1.19-9.1,0-16.46-8.28-16.46-18.46s7.36-18.48,16.46-18.48c5.13,0,9.72,2.62,12.74,6.75l-1.64,1.5c-2.64-3.58-6.64-5.87-11.1-5.87-7.91,0-14.34,7.2-14.34,16.1s6.42,16.07,14.34,16.07c2.08,0,4.06-.5,5.85-1.38v-2.67c-1.72,1.07-3.72,1.67-5.85,1.67-6.74,0-12.23-6.13-12.23-13.69s5.49-13.71,12.23-13.71c3.81,0,7.21,1.96,9.44,5.01l-1.64,1.5c-1.85-2.53-4.66-4.13-7.81-4.13-5.57,0-10.1,5.06-10.1,11.33s4.53,11.3,10.1,11.3c2.19,0,4.21-.76,5.85-2.07v-3.17c-1.45,1.76-3.53,2.86-5.85,2.86-4.4,0-7.98-3.98-7.98-8.92s3.57-8.94,7.98-8.94c2.49,0,4.7,1.26,6.17,3.27l-1.64,1.5c-1.08-1.46-2.7-2.38-4.53-2.38-3.23,0-5.85,2.93-5.85,6.56s2.62,6.53,5.85,6.53,5.85-2.93,5.85-6.53ZM65.51,90.22l-1.66,1.53c-.3-.38-.72-.64-1.23-.64-.87,0-1.6.79-1.6,1.79s.72,1.79,1.6,1.79,1.6-.81,1.6-1.79h2.13c0,2.29-1.66,4.17-3.72,4.17s-3.72-1.88-3.72-4.17,1.68-4.17,3.72-4.17c1.17,0,2.21.6,2.89,1.5ZM72.72,92.89h2.13v27.4h-2.13v-27.4ZM76.97,92.89h2.13v27.4h-2.13v-27.4ZM81.23,92.89h2.13v27.4h-2.13v-27.4Z"/>
      <path class="cls-3" d="M112.32,74.42v2.38h-4.25c-9.98,0-18.08,9.09-18.08,20.27v22.63h-2.13v-22.63c0-12.5,9.04-22.66,20.21-22.66h4.25ZM112.32,79.19v2.39h-4.25c-7.64,0-13.83,6.94-13.83,15.5v22.63h-2.13v-22.63c0-9.87,7.15-17.89,15.95-17.89h4.25ZM112.32,83.96v2.39h-4.25c-5.3,0-9.57,4.82-9.57,10.73v22.63h-2.13v-22.63c0-7.25,5.23-13.12,11.7-13.12h4.25ZM112.32,88.73v2.38h-4.25c-2.94,0-5.32,2.67-5.32,5.96v22.63h-2.13v-22.63c0-4.6,3.34-8.35,7.44-8.35h4.25ZM112.32,93.5v2.38h-4.25c-.6,0-1.06.52-1.06,1.19v22.63h-2.13v-22.63c0-1.98,1.43-3.58,3.19-3.58h4.25Z"/>
      <path class="cls-3" d="M135.65,64.86v2.38h-19.12v-2.38h19.12ZM116.53,69.61h19.12v2.38h-19.12v-2.38ZM135.65,119.67h-2.13v-42.91h-2.13v42.91h-2.13v-42.91h-2.11v42.91h-2.13v-42.91h-2.13v42.91h-2.13v-42.91h-2.13v42.91h-2.13v-45.29h19.12v45.29Z"/>
      <path class="cls-1" d="M211.57,91.14c0,19.34-16.2,35.02-36.14,35.02s-36.14-15.68-36.14-35.02,16.2-35.06,36.14-35.06,36.14,15.68,36.14,35.06ZM142.99,91.14c0,17.37,14.53,31.43,32.44,31.43s32.43-14.06,32.43-31.43-14.53-31.46-32.43-31.46-32.44,14.06-32.44,31.46ZM204.16,91.14c0,15.35-12.86,27.83-28.73,27.83s-28.73-12.48-28.73-27.83,12.86-27.87,28.73-27.87,28.73,12.48,28.73,27.87ZM150.41,91.14c0,13.38,11.19,24.23,25.02,24.23s25.02-10.86,25.02-24.23-11.2-24.27-25.02-24.27-25.02,10.86-25.02,24.27ZM196.74,91.14c0,11.4-9.56,20.64-21.31,20.64s-21.31-9.24-21.31-20.64,9.56-20.67,21.31-20.67,21.31,9.24,21.31,20.67ZM157.82,91.14c0,9.42,7.9,17.04,17.61,17.04s17.61-7.62,17.61-17.04-7.9-17.08-17.61-17.08-17.61,7.62-17.61,17.08ZM189.33,91.14c0,7.44-6.23,13.45-13.9,13.45s-13.9-6-13.9-13.45,6.23-13.48,13.9-13.48,13.9,6.04,13.9,13.48ZM165.23,91.14c0,5.43,4.56,9.85,10.19,9.85s10.19-4.42,10.19-9.85-4.56-9.89-10.19-9.89-10.19,4.42-10.19,9.89ZM181.92,91.14c0,3.45-2.89,6.29-6.49,6.29s-6.49-2.84-6.49-6.29,2.89-6.29,6.49-6.29,6.49,2.8,6.49,6.29ZM172.65,91.14c0,1.47,1.26,2.7,2.78,2.7s2.78-1.22,2.78-2.7-1.26-2.7-2.78-2.7-2.78,1.19-2.78,2.7Z"/>
      <path class="cls-3" d="M235.39,118.53h4.25v2.38h-4.25c-11.15,0-20.19-10.14-20.19-22.66v-32.17h2.13v32.17c0,11.21,8.08,20.27,18.06,20.27ZM235.39,113.76h4.25v2.38h-4.25c-8.81,0-15.93-8.01-15.93-17.89v-32.17h2.13v32.17c0,8.56,6.19,15.5,13.8,15.5ZM235.39,108.99h4.25v2.39h-4.25c-6.44,0-11.68-5.87-11.68-13.12v-32.17h2.13v32.17c0,5.94,4.28,10.73,9.55,10.73ZM235.39,104.22h4.25v2.39h-4.25c-4.1,0-7.42-3.72-7.42-8.35v-32.17h2.11v32.17c0,3.29,2.38,5.96,5.32,5.96ZM234.33,78.01v2.38h5.32v2.39h-5.32v2.38h5.32v2.39h-5.32v2.38h5.32v2.38h-5.32v2.39h5.32v2.38h-5.32v1.17c0,.67.49,1.19,1.06,1.19h4.25v2.38h-4.25c-1.74,0-3.19-1.6-3.19-3.58v-32.17h2.13v9.54h5.32v2.38h-5.32Z"/>
    </g>
  </g>
</svg>